<svg xmlns="http://www.w3.org/2000/svg" xmlns:xlink="http://www.w3.org/1999/xlink" preserveAspectRatio="xMidYMid" width="162" height="50" viewBox="0 0 162 50">
  <defs>
    <style>

      .cls-3 {
        fill: #737373;
      }
    </style>
  </defs>
  <g id="logosvg">
    <path d="M154.711,27.159 C154.711,27.159 154.711,34.000 154.711,34.000 C154.711,34.000 151.351,34.000 151.351,34.000 C151.351,34.000 151.351,27.159 151.351,27.159 C151.351,27.159 145.015,17.199 145.015,17.199 C145.015,17.199 148.879,17.174 148.879,17.174 C148.879,17.174 151.855,22.071 151.855,22.071 C152.551,23.199 153.079,24.111 153.103,24.135 C153.103,24.135 153.175,24.135 153.175,24.135 C153.199,24.111 153.703,23.199 154.399,22.095 C154.399,22.095 157.472,17.199 157.472,17.199 C157.472,17.199 161.048,17.199 161.048,17.199 C161.048,17.199 154.711,27.159 154.711,27.159 ZM143.216,34.000 C143.216,34.000 141.944,30.640 141.944,30.640 C141.944,30.640 134.383,30.640 134.383,30.640 C134.383,30.640 133.111,34.000 133.111,34.000 C133.111,34.000 129.583,34.000 129.583,34.000 C129.583,34.000 136.303,17.199 136.303,17.199 C136.303,17.199 140.071,17.199 140.071,17.199 C140.071,17.199 146.792,34.000 146.792,34.000 C146.792,34.000 143.216,34.000 143.216,34.000 ZM139.375,23.919 C138.799,22.479 138.223,20.991 138.199,20.967 C138.199,20.967 138.127,20.967 138.127,20.967 C138.103,20.991 137.527,22.455 136.951,23.919 C136.951,23.919 135.535,27.615 135.535,27.615 C135.535,27.615 140.768,27.615 140.768,27.615 C140.768,27.615 139.375,23.919 139.375,23.919 ZM116.935,17.199 C116.935,17.199 120.272,17.199 120.272,17.199 C120.272,17.199 120.272,30.904 120.272,30.904 C120.272,30.904 128.240,30.904 128.240,30.904 C128.240,30.904 128.240,34.000 128.240,34.000 C128.240,34.000 116.935,34.000 116.935,34.000 C116.935,34.000 116.935,17.199 116.935,17.199 ZM108.368,28.407 C108.368,28.407 105.824,28.407 105.824,28.407 C105.824,28.407 105.824,34.000 105.824,34.000 C105.824,34.000 102.488,34.000 102.488,34.000 C102.488,34.000 102.488,17.199 102.488,17.199 C102.488,17.199 108.368,17.199 108.368,17.199 C112.400,17.199 114.849,19.239 114.849,22.815 C114.849,26.271 112.400,28.407 108.368,28.407 ZM108.464,20.247 C108.464,20.247 105.824,20.247 105.824,20.247 C105.824,20.247 105.824,25.479 105.824,25.479 C105.824,25.479 108.464,25.479 108.464,25.479 C110.528,25.479 111.512,24.495 111.512,22.863 C111.512,21.183 110.480,20.247 108.464,20.247 ZM100.257,29.296 C100.257,32.632 97.905,34.312 93.920,34.312 C91.040,34.312 87.752,33.424 86.936,29.728 C86.936,29.728 90.128,28.863 90.128,28.863 C90.392,30.520 91.856,31.384 93.920,31.384 C95.745,31.384 96.873,30.688 96.873,29.296 C96.873,27.303 94.616,27.327 92.528,26.823 C90.248,26.295 87.392,25.311 87.392,21.807 C87.392,18.543 89.840,16.862 93.536,16.862 C96.849,16.862 99.249,18.231 100.137,21.183 C100.137,21.183 96.945,22.023 96.945,22.023 C96.513,20.607 95.408,19.815 93.464,19.815 C91.616,19.815 90.800,20.535 90.800,21.711 C90.800,23.391 92.576,23.703 94.928,24.183 C97.425,24.663 100.257,25.623 100.257,29.296 ZM81.368,17.199 C81.368,17.199 84.704,17.199 84.704,17.199 C84.704,17.199 84.704,34.000 84.704,34.000 C84.704,34.000 81.368,34.000 81.368,34.000 C81.368,34.000 81.368,17.199 81.368,17.199 ZM70.281,34.000 C70.281,34.000 63.512,34.000 63.512,34.000 C63.512,34.000 63.512,17.199 63.512,17.199 C63.512,17.199 70.233,17.199 70.233,17.199 C75.297,17.199 79.089,20.559 79.089,25.671 C79.089,30.808 75.273,34.000 70.281,34.000 ZM70.041,20.295 C70.041,20.295 66.848,20.295 66.848,20.295 C66.848,20.295 66.848,30.904 66.848,30.904 C66.848,30.904 70.089,30.904 70.089,30.904 C73.017,30.904 75.729,29.344 75.729,25.671 C75.729,22.023 73.017,20.295 70.041,20.295 Z" id="path-1" class="cls-3" fill-rule="evenodd"/>
    <rect id="rect-1" class="cls-3" width="50" height="50"/>
  </g>
</svg>
